<svg xmlns="http://www.w3.org/2000/svg" width="1200" height="675" aria-labelledby="title desc" role="img" viewBox="0 0 1200 675"><title id="title">Sandcastle workflow diagram</title><desc id="desc">Prompt files fan out into isolated worktrees and containers, then return reviewed commits.</desc><defs><linearGradient id="bg" x1="0" x2="1" y1="0" y2="1"><stop offset="0" stop-color="#15171c"/><stop offset=".55" stop-color="#22272e"/><stop offset="1" stop-color="#1f332f"/></linearGradient><linearGradient id="gold" x1="0" x2="1"><stop offset="0" stop-color="#f4c45f"/><stop offset="1" stop-color="#ef8f4f"/></linearGradient><filter id="shadow" width="140%" height="140%" x="-20%" y="-20%"><feDropShadow dx="0" dy="16" flood-color="#000" flood-opacity=".35" stdDeviation="20"/></filter></defs><rect width="1200" height="675" fill="url(#bg)"/><path fill="#0f2326" d="M0 559 C170 496 267 587 442 527 C592 475 654 362 832 385 C980 404 1042 503 1200 458 L1200 675 L0 675 Z" opacity=".72"/><path fill="#233a35" d="M0 598 C214 538 311 635 502 575 C671 522 732 444 914 463 C1047 477 1115 535 1200 515 L1200 675 L0 675 Z" opacity=".9"/><g><text x="0" y="0" fill="#fff" font-family="Inter, ui-sans-serif, system-ui, -apple-system, BlinkMacSystemFont, 'Segoe UI', sans-serif" font-size="54" font-weight="760" letter-spacing="0" transform="translate(74 64)">Sandcastle</text><text x="0" y="42" fill="#b8c2bd" font-family="Inter, ui-sans-serif, system-ui, -apple-system, BlinkMacSystemFont, 'Segoe UI', sans-serif" font-size="24" letter-spacing="0" transform="translate(74 64)">Prompt once. Run agents in isolated worktrees. Bring back commits.</text></g><g filter="url(#shadow)"><rect width="235" height="175" x="86" y="218" fill="#f6f1df" rx="20"/><rect width="118" height="14" x="112" y="248" fill="#1f2933" rx="7"/><rect width="160" height="10" x="112" y="282" fill="#6a7b82" rx="5"/><rect width="132" height="10" x="112" y="306" fill="#6a7b82" rx="5"/><rect width="174" height="10" x="112" y="330" fill="#6a7b82" rx="5"/><text x="112" y="376" fill="#25313a" font-family="Inter, ui-sans-serif, system-ui, -apple-system, BlinkMacSystemFont, 'Segoe UI', sans-serif" font-size="25" font-weight="760" letter-spacing="0">prompt.md</text></g><g filter="url(#shadow)" transform="translate(412 170)"><rect width="316" height="96" x="0" y="0" fill="#26323a" stroke="#5ea7b8" stroke-width="2" rx="20"/><circle cx="48" cy="48" r="20" fill="#5ea7b8"/><path stroke="#102126" stroke-linecap="round" stroke-width="5" d="M40 48 H56 M48 40 V56"/><text x="86" y="42" fill="#fff" font-family="Inter, ui-sans-serif, system-ui, -apple-system, BlinkMacSystemFont, 'Segoe UI', sans-serif" font-size="25" font-weight="760" letter-spacing="0">Worktree A</text><text x="86" y="70" fill="#b9c8cb" font-family="Inter, ui-sans-serif, system-ui, -apple-system, BlinkMacSystemFont, 'Segoe UI', sans-serif" font-size="18" letter-spacing="0">Claude Code in Docker</text></g><g filter="url(#shadow)" transform="translate(412 302)"><rect width="316" height="96" x="0" y="0" fill="#26323a" stroke="#f0b35a" stroke-width="2" rx="20"/><circle cx="48" cy="48" r="20" fill="#f0b35a"/><path fill="#2c2114" d="M39 50 C45 38 57 39 60 50 C57 62 45 63 39 50 Z"/><text x="86" y="42" fill="#fff" font-family="Inter, ui-sans-serif, system-ui, -apple-system, BlinkMacSystemFont, 'Segoe UI', sans-serif" font-size="25" font-weight="760" letter-spacing="0">Worktree B</text><text x="86" y="70" fill="#cec3b2" font-family="Inter, ui-sans-serif, system-ui, -apple-system, BlinkMacSystemFont, 'Segoe UI', sans-serif" font-size="18" letter-spacing="0">Codex in Podman</text></g><g filter="url(#shadow)" transform="translate(412 434)"><rect width="316" height="96" x="0" y="0" fill="#26323a" stroke="#8fcf92" stroke-width="2" rx="20"/><circle cx="48" cy="48" r="20" fill="#8fcf92"/><path fill="none" stroke="#132116" stroke-linecap="round" stroke-linejoin="round" stroke-width="5" d="M39 49 H57 M49 39 L59 49 L49 59"/><text x="86" y="42" fill="#fff" font-family="Inter, ui-sans-serif, system-ui, -apple-system, BlinkMacSystemFont, 'Segoe UI', sans-serif" font-size="25" font-weight="760" letter-spacing="0">Worktree C</text><text x="86" y="70" fill="#bed0bf" font-family="Inter, ui-sans-serif, system-ui, -apple-system, BlinkMacSystemFont, 'Segoe UI', sans-serif" font-size="18" letter-spacing="0">custom provider</text></g><g fill="none" stroke="#fff" stroke-linecap="round" stroke-width="4" opacity=".72"><path d="M321 304 C358 252 374 222 412 218"/><path d="M321 304 C361 336 374 350 412 350"/><path d="M321 304 C359 411 376 477 412 482"/><path d="M728 218 C786 224 813 258 858 304"/><path d="M728 350 C785 350 814 337 858 304"/><path d="M728 482 C790 459 822 390 858 304"/></g><g fill="#fff" opacity=".72"><path d="M404 211 L421 217 L406 227 Z"/><path d="M404 342 L421 350 L404 358 Z"/><path d="M403 475 L421 483 L404 491 Z"/><path d="M850 296 L868 303 L852 314 Z"/></g><g filter="url(#shadow)" transform="translate(858 218)"><rect width="248" height="172" x="0" y="0" fill="#f6f1df" rx="22"/><rect width="82" height="14" x="28" y="30" fill="#2a3338" rx="7"/><rect width="190" height="12" x="28" y="66" fill="#68787d" rx="6"/><rect width="154" height="12" x="28" y="94" fill="#68787d" rx="6"/><rect width="106" height="12" x="28" y="122" fill="#68787d" rx="6"/><path fill="none" stroke="#2e8f68" stroke-linecap="round" stroke-linejoin="round" stroke-width="10" d="M164 119 L185 140 L222 94"/><text x="28" y="155" fill="#25313a" font-family="Inter, ui-sans-serif, system-ui, -apple-system, BlinkMacSystemFont, 'Segoe UI', sans-serif" font-size="24" font-weight="760" letter-spacing="0">merged commits</text></g><g transform="translate(84 565)"><rect width="1040" height="54" x="0" y="0" fill="#10181c" opacity=".78" rx="17"/><text x="28" y="35" fill="#d8e0dc" font-family="Inter, ui-sans-serif, system-ui, -apple-system, BlinkMacSystemFont, 'Segoe UI', sans-serif" font-size="21" letter-spacing="0">Branch strategies: head, merge-to-head, or explicit branch. Isolation boundary stays outside the agent loop.</text></g></svg>